<svg xmlns="http://www.w3.org/2000/svg" xmlns:xlink="http://www.w3.org/1999/xlink" width="500" zoomAndPan="magnify" viewBox="0 0 375 374.999991" height="500" preserveAspectRatio="xMidYMid meet" version="1.0"><defs><g/><clipPath id="0f921a889f"><path d="M 176.484375 90 L 228.984375 90 L 228.984375 193.976562 L 176.484375 193.976562 Z M 176.484375 90 " clip-rule="nonzero"/></clipPath><clipPath id="0481a9d576"><path d="M 146.335938 90 L 198.835938 90 L 198.835938 193.890625 L 146.335938 193.890625 Z M 146.335938 90 " clip-rule="nonzero"/></clipPath></defs><rect x="-37.5" width="450" fill="#ffffff" y="-37.499999" height="449.999989" fill-opacity="1"/><rect x="-37.5" width="450" fill="#ffffff" y="-37.499999" height="449.999989" fill-opacity="1"/><rect x="-37.5" width="450" fill="#ffffff" y="-37.499999" height="449.999989" fill-opacity="1"/><g fill="#ceb6ff" fill-opacity="1"><g transform="translate(92.094627, 270.110896)"><g><path d="M 4.980469 0 L 8.898438 0 L 8.898438 -21.421875 L 8.367188 -29.355469 L 8.511719 -29.355469 L 11.945312 -22.875 L 25.195312 0 L 29.933594 0 L 29.933594 -33.996094 L 26.015625 -33.996094 L 26.015625 -12.621094 L 26.453125 -4.640625 L 26.355469 -4.59375 L 23.019531 -10.976562 L 9.769531 -33.996094 L 4.980469 -33.996094 Z M 4.980469 0 "/></g></g></g><g fill="#ceb6ff" fill-opacity="1"><g transform="translate(129.716243, 270.110896)"><g><path d="M 25.582031 0 L 29.644531 0 L 17.359375 -33.851562 L 12.910156 -33.851562 L 0.726562 0 L 4.835938 0 L 8.703125 -10.640625 L 21.617188 -10.640625 Z M 13.539062 -25.148438 L 14.894531 -29.835938 L 15.28125 -29.835938 L 16.683594 -25.148438 L 20.40625 -14.074219 L 9.914062 -14.074219 Z M 13.539062 -25.148438 "/></g></g></g><g fill="#ceb6ff" fill-opacity="1"><g transform="translate(162.598898, 270.110896)"><g><path d="M 12.621094 0.046875 L 17.457031 0.046875 L 29.355469 -33.996094 L 25.195312 -33.996094 L 16.828125 -9.429688 L 15.183594 -3.144531 L 14.941406 -3.144531 L 13.058594 -9.574219 L 4.738281 -33.996094 L 0.53125 -33.996094 Z M 12.621094 0.046875 "/></g></g></g><g fill="#ceb6ff" fill-opacity="1"><g transform="translate(195.143063, 270.110896)"><g><path d="M 21.328125 -33.898438 L 0.53125 -33.898438 L 0.53125 -30.320312 L 8.996094 -30.320312 L 8.996094 0 L 12.910156 0 L 12.910156 -30.320312 L 21.328125 -30.320312 Z M 21.328125 -33.898438 "/></g></g></g><g fill="#ceb6ff" fill-opacity="1"><g transform="translate(219.660024, 270.110896)"><g><path d="M 22.101562 -30.464844 L 22.101562 -33.898438 L 4.015625 -33.898438 L 4.015625 0 L 22.101562 0 L 22.101562 -3.386719 L 7.882812 -3.386719 L 7.882812 -15.523438 L 21.90625 -15.523438 L 21.90625 -18.910156 L 7.882812 -18.910156 L 7.882812 -30.464844 Z M 22.101562 -30.464844 "/></g></g></g><g fill="#ceb6ff" fill-opacity="1"><g transform="translate(247.658659, 270.110896)"><g><path d="M 19.488281 0.582031 C 24.808594 0.582031 29.304688 -1.644531 32.789062 -5.851562 L 30.03125 -7.980469 C 27.324219 -4.691406 23.261719 -2.949219 19.488281 -2.949219 C 11.171875 -2.949219 6.285156 -9.625 6.285156 -16.828125 C 6.285156 -24.421875 11.269531 -30.949219 19.683594 -30.949219 C 23.648438 -30.949219 26.789062 -29.402344 29.304688 -26.789062 L 31.722656 -29.0625 C 28.484375 -32.835938 24.46875 -34.433594 19.488281 -34.433594 C 8.414062 -34.433594 2.371094 -25.773438 2.371094 -16.828125 C 2.371094 -7.835938 8.558594 0.582031 19.488281 0.582031 Z M 19.488281 0.582031 "/></g></g></g><g clip-path="url(#0f921a889f)"><path fill="#ceb6ff" d="M 228.984375 90.179688 L 228.984375 175.953125 L 211.273438 193.519531 L 176.484375 165.238281 L 176.484375 142.007812 L 211.273438 169.992188 L 211.273438 102.101562 Z M 228.984375 90.179688 " fill-opacity="1" fill-rule="nonzero"/></g><g clip-path="url(#0481a9d576)"><path fill="#5e17eb" d="M 146.335938 193.433594 L 146.335938 107.664062 L 164.03125 90.09375 L 198.835938 118.390625 L 198.835938 141.621094 L 164.03125 113.625 L 164.03125 181.527344 Z M 146.335938 193.433594 " fill-opacity="1" fill-rule="nonzero"/></g></svg>